<?xml version="1.0" encoding="UTF-8"?>
<svg version="1.1" xmlns="http://www.w3.org/2000/svg" width="756" height="756">
<path d="M0 0 C183.48 0 366.96 0 556 0 C556 136.29 556 272.58 556 413 C372.52 413 189.04 413 0 413 C0 276.71 0 140.42 0 0 Z M20 20 C20 143.09 20 266.18 20 393 C190.28 393 360.56 393 536 393 C536 269.91 536 146.82 536 20 C365.72 20 195.44 20 20 20 Z " fill="#191919" transform="translate(100,253)"/>
<path d="M0 0 C16.17 0 32.34 0 49 0 C49 47.52 49 95.04 49 144 C137.44 144 225.88 144 317 144 C317 160.17 317 176.34 317 193 C228.56 193 140.12 193 49 193 C49 240.52 49 288.04 49 337 C32.83 337 16.66 337 0 337 C0 225.79 0 114.58 0 0 Z " fill="#55DCFF" transform="translate(138,291)"/>
<path d="M0 0 C94.05 0 188.1 0 285 0 C285 26.07 285 52.14 285 79 C190.95 79 96.9 79 0 79 C0 52.93 0 26.86 0 0 Z " fill="#1A1A1A" transform="translate(238,88)"/>
<path d="M0 0 C72.93 0 145.86 0 221 0 C221 16.17 221 32.34 221 49 C163.91 49 106.82 49 48 49 C48 74.41 48 99.82 48 126 C32.16 126 16.32 126 0 126 C0 84.42 0 42.84 0 0 Z " fill="#54DDFF" transform="translate(330,291)"/>
<path d="M0 0 C72.6 0 145.2 0 220 0 C220 16.17 220 32.34 220 49 C147.4 49 74.8 49 0 49 C0 32.83 0 16.66 0 0 Z " fill="#1A1A1A" transform="translate(397,579)"/>
<path d="M0 0 C63.36 0 126.72 0 192 0 C192 15.18 192 30.36 192 46 C128.64 46 65.28 46 0 46 C0 30.82 0 15.64 0 0 Z " fill="#1A1A1A" transform="translate(282,187)"/>
<path d="M0 0 C47.85 0 95.7 0 145 0 C145 16.17 145 32.34 145 49 C97.15 49 49.3 49 0 49 C0 32.83 0 16.66 0 0 Z " fill="#1A1A1A" transform="translate(473,435)"/>
<path d="M0 0 C15.84 0 31.68 0 48 0 C48 41.58 48 83.16 48 126 C32.16 126 16.32 126 0 126 C0 84.42 0 42.84 0 0 Z " fill="#55DDFF" transform="translate(330,502)"/>
<path d="M0 0 C34.98 0 69.96 0 106 0 C106 16.17 106 32.34 106 49 C71.02 49 36.04 49 0 49 C0 32.83 0 16.66 0 0 Z " fill="#1A1A1A" transform="translate(205,579)"/>
<path d="M0 0 C34.98 0 69.96 0 106 0 C106 16.17 106 32.34 106 49 C71.02 49 36.04 49 0 49 C0 32.83 0 16.66 0 0 Z " fill="#1A1A1A" transform="translate(205,291)"/>
<path d="M0 0 C16.17 0 32.34 0 49 0 C49 16.17 49 32.34 49 49 C32.83 49 16.66 49 0 49 C0 32.83 0 16.66 0 0 Z " fill="#1A1A1A" transform="translate(569,291)"/>
</svg>
